<svg width="1282" height="2532" viewBox="0 0 1282 2532" fill="none" xmlns="http://www.w3.org/2000/svg">
<path fill-rule="evenodd" clip-rule="evenodd" d="M1095.82 2556.69C1099.73 2552.09 1104.54 2545.53 1106.49 2542.1C1110.82 2534.53 1123.09 2522.58 1123.09 2525.94C1123.09 2527.27 1118.83 2533.2 1113.61 2539.11C1108.39 2545.02 1104.12 2552.34 1104.12 2555.36C1104.12 2563.93 1127.57 2533.44 1133.96 2516.55C1138.16 2505.46 1139.7 2495.08 1139.7 2477.75C1139.7 2419.85 1126.77 2409.08 1051.52 2404.27C936.423 2396.91 955.449 2250.69 1072.62 2242.1C1100.09 2240.09 1112.54 2231.3 1109.86 2215.83C1107.91 2204.5 1114.29 2196.76 1132.56 2188.3C1141.97 2183.94 1154.62 2174.84 1160.69 2168.06C1166.75 2161.29 1179.18 2151.64 1188.29 2146.6C1205.86 2136.91 1226.92 2115.4 1243.29 2090.44C1248.75 2082.13 1254 2075.33 1254.96 2075.33C1257.06 2075.33 1282 2017.41 1282 2012.55C1282 2010.69 1280.56 2004.49 1278.8 1998.77C1273.72 1982.28 1272.45 1962.94 1275.08 1941.79C1276.82 1927.78 1276.72 1916.62 1274.73 1902.59C1270.08 1869.84 1265.59 1848.72 1263.29 1848.72C1262.09 1848.72 1256.67 1840.49 1251.26 1830.43C1240.29 1810.09 1229.01 1801.36 1213.59 1801.32C1207.92 1801.3 1200.45 1797.99 1196.98 1793.95C1193.52 1789.91 1186.23 1782.52 1180.78 1777.51C1165.92 1763.86 1156.41 1740.25 1162.07 1731.04C1168.51 1720.59 1164.83 1703.44 1152.78 1687.76C1135.49 1665.23 1128.72 1662.94 1068.54 1659.18L1010.44 1655.55L989.092 1637.81C966.297 1618.88 945.668 1615.1 917.072 1624.6C904.803 1628.68 882.902 1623.3 861.566 1610.97C830.236 1592.87 806.25 1495.41 819.221 1438.92C833.044 1378.71 870.154 1349.78 926.241 1355.51C974.081 1360.39 1001.87 1353.19 1023.98 1330.18C1033.49 1320.29 1046.75 1306.94 1053.45 1300.51C1066.18 1288.32 1092.09 1233.74 1104.67 1192.66C1113.49 1163.84 1113.07 1147.07 1102.9 1122.05C1097.46 1108.65 1095.09 1098.55 1096.08 1092.86C1098.94 1076.3 1067.66 1021.3 1055.38 1021.3C1053.68 1021.3 1044.37 1013.17 1034.68 1003.23L1017.08 985.162L979.36 986.537C952.247 987.528 939.975 990.005 935.721 995.349C931.309 1000.89 918.606 1003.04 885.921 1003.8C822.539 1005.28 785.151 1008.47 782.099 1012.66C779.184 1016.66 757.81 1006.28 757.91 1000.91C757.943 999.081 768.881 985.726 782.22 971.233C811.21 939.728 820.765 912.713 813.107 883.906C807.993 864.67 809.58 866.341 755.476 823.089C738.701 809.676 711.149 806.224 696.318 815.679C690.313 819.505 685.086 818.814 676.339 813.043C669.821 808.743 655.344 805.138 644.166 805.033C632.991 804.933 617.442 801.412 609.615 797.212C585.478 784.263 559.859 786.782 498.144 808.179C471.728 817.339 445.342 841.555 414.944 884.544C381.955 931.195 379.199 933.198 353.677 929.114C329.974 925.319 318.372 931.243 304.217 954.374C260.905 1025.14 127.127 1003.05 91.7126 919.285L86.3905 906.7L95.7968 890.141C105.694 872.723 119.493 857.924 125.837 857.924C127.908 857.924 134.458 853.007 140.397 846.994C146.898 840.417 160.298 834.082 174.064 831.083C249.719 814.593 253.291 812.105 276.188 760.057L291.305 725.696L288.213 704.868C282.065 663.476 277.369 652.72 255.552 630.089C244.184 618.29 228.478 599.006 220.652 587.227C211.893 574.046 195.566 557.635 178.191 544.539C161.157 531.706 148.926 519.469 147.358 513.687C144.396 502.772 142.197 507.368 182.533 440.047C196.787 416.252 214.397 384.884 221.667 370.338C228.936 355.798 239.151 336.983 244.369 328.53C249.587 320.082 257.16 305.895 261.196 297.004C265.233 288.113 278.313 265.425 290.262 246.584C302.213 227.743 316.851 203.432 322.792 192.565C328.736 181.698 334.466 172.802 335.529 172.802C338.719 172.802 371.854 104.764 377.435 86.761C386.979 55.9622 451.575 -67.4338 455.106 -61.6104C455.948 -60.2244 456.122 -60.6301 455.491 -62.5168C454.857 -64.4036 456.193 -69.0728 458.455 -72.8884C461.935 -78.7593 462.001 -79.8555 458.892 -79.9978C456.869 -80.0928 453.778 -77.2048 452.021 -73.5789C449.616 -68.6143 449.232 -68.5828 450.463 -73.4419C451.665 -78.1797 449.206 -79.5764 441.17 -78.7119C433.358 -77.8689 431.237 -76.1296 433.728 -72.6091C438.208 -66.2693 376.913 62.1282 369.406 62.1282C366.726 62.1282 341.335 106.129 323.822 141.112C313.448 161.84 302.479 181.081 263.544 246.853C253.22 264.292 236.677 294.917 226.783 314.901C208.731 351.366 198.549 369.648 182.649 394.149C177.949 401.396 168.032 418.192 160.614 431.472C153.197 444.753 140.191 465.955 131.712 478.588C113.708 505.408 89.0208 556.033 89.0208 566.13C89.0208 574.51 94.4283 577.456 115.696 580.671C124.497 581.999 135.068 586.821 139.185 591.385C143.302 595.949 148.691 599.686 151.158 599.686C153.627 599.686 158.287 605.557 161.52 612.74C164.75 619.918 169.503 628.303 172.083 631.37C177.863 638.242 178.146 656.098 172.686 669.505C168.789 679.07 168.863 679.993 174.242 689.01C189.61 714.765 172.513 733.121 129.509 737.026C95.8608 740.083 86.649 743.514 86.649 752.995C86.649 755.535 81.2747 763.667 74.705 771.061C55.8829 792.258 48.5591 830.372 57.0024 863.194C62.557 884.786 61.224 893.508 50.167 907.907C39.2025 922.183 28.6792 951.364 26.1343 974.553C25.2971 982.174 20.9615 996.277 16.498 1005.89C12.0344 1015.5 8.38196 1026.55 8.38196 1030.45C8.38196 1034.35 6.02209 1044.63 3.13806 1053.29C-4.19531 1075.33 1.68433 1101.08 17.0199 1114.09C22.705 1118.92 27.3558 1124.47 27.3558 1126.44C27.3558 1169.99 138.189 1185.28 188.633 1148.68C206.711 1135.57 228.462 1124.19 244.369 1119.53C273.157 1111.09 290.758 1098.38 308.522 1073.21C331.117 1041.19 358.302 1007.83 368.885 999.128C402.784 971.259 436.787 956.893 451.909 964.044C457.772 966.822 467.904 971.597 474.427 974.653C491.434 982.638 509.955 977.199 520.362 961.177C526.144 952.271 534.638 946.068 545.913 942.516C563.395 937.008 568.164 933.846 585.504 916.297C591.149 910.578 601.551 900.897 608.621 894.779C615.689 888.66 626.276 878.457 632.146 872.106C660.029 841.94 746.774 868.87 733.78 903.659C730.893 911.39 732.769 917.129 740.06 922.858C743.831 925.82 736.474 942.247 731.375 942.247C718.522 942.247 702.122 971.897 703.853 992.008C705.378 1009.75 696.615 1042.66 686.926 1055.56C651.509 1102.69 649.154 1135.71 679.581 1158.55C682.842 1161 689.779 1166.59 694.997 1170.97C720.885 1192.72 770.866 1177.85 802.434 1139.01C822.456 1114.38 848.704 1095.08 862.202 1095.08C868.266 1095.08 881.771 1089.4 892.211 1082.45C918.526 1064.95 949.206 1059.6 958.961 1070.81C963.012 1075.47 970.699 1079.27 976.047 1079.27C1012.26 1079.27 1022.58 1163.46 992.075 1210.09C947.515 1278.22 922.669 1285.73 833.288 1258.09C797.269 1246.96 772.173 1253.17 757.568 1276.84C753.157 1283.99 745.812 1293.94 741.246 1298.96C731.064 1310.15 722.272 1326.76 722.272 1334.81C722.272 1338.11 719.023 1347.72 715.053 1356.18C703.443 1380.89 705.846 1394.36 725.83 1416.56C750.659 1444.15 750.176 1453.5 722.272 1485.29C677.382 1536.43 690.555 1592.01 754.234 1620.14C769.918 1627.07 787.796 1636.45 793.962 1640.98C802.951 1647.59 821.133 1649.67 885.734 1651.5C972.001 1653.95 989.398 1658 1016.77 1682.05C1025.03 1689.3 1039.9 1697.68 1049.82 1700.67C1059.74 1703.66 1070.75 1708.55 1074.29 1711.53C1077.82 1714.52 1086.3 1716.96 1093.14 1716.96C1103.01 1716.96 1107.98 1720.38 1117.29 1733.54C1123.74 1742.66 1135.67 1756.77 1143.8 1764.89C1201.39 1822.48 1233.03 1922.49 1211.17 1977.83C1207.08 1988.18 1203.73 2000.43 1203.73 2005.07C1203.73 2036.68 1171.57 2095.1 1134.45 2130.91C1121.27 2143.62 1107.71 2159.82 1104.34 2166.89C1100.96 2173.97 1094.17 2182.17 1089.26 2185.11C1084.35 2188.06 1076.93 2196.83 1072.78 2204.6C1066.38 2216.56 1063.75 2218.25 1055.62 2215.57C995.792 2195.89 958.603 2213.24 953.314 2263.29C952.446 2271.51 948.25 2286.54 943.993 2296.68C910.082 2377.47 942.94 2433.25 1024.79 2433.84C1038.8 2433.94 1047.91 2437.37 1060.24 2447.19C1069.37 2454.45 1080.58 2462.93 1085.15 2466.04C1107.74 2481.42 1101.1 2516.66 1073.77 2526.37C1061.96 2530.57 1060.56 2538.85 1071.51 2539.72C1075.75 2540.06 1077.34 2541.42 1075.04 2542.76C1072.74 2544.09 1071.46 2547.35 1072.2 2550C1074.68 2558.93 1100.61 2529.07 1115.39 2500.25C1122.72 2485.94 1122.23 2467.7 1114.2 2456.35C1110.61 2451.28 1106.83 2444.14 1105.8 2440.48C1101.74 2426.13 1092.44 2420.41 1068.54 2417.54L1043.64 2414.55L1069.27 2413.59C1113.92 2411.91 1132.05 2431.54 1128.18 2477.37C1125.86 2504.78 1119.97 2523.3 1113.56 2523.3C1111.33 2523.3 1106.96 2527.7 1103.85 2533.1C1095.48 2547.58 1083.59 2560.24 1081.89 2556.46C1081.07 2554.65 1080.4 2555.93 1080.4 2559.31C1080.4 2567.83 1087.34 2566.65 1095.82 2556.69ZM1128.06 2509.54C1129.85 2504.73 1131.99 2488.66 1132.8 2473.83L1134.28 2446.88L1134.62 2473.37C1134.93 2498 1129.45 2528.63 1126.07 2521.13C1125.37 2519.57 1126.26 2514.34 1128.06 2509.54ZM1103.02 2501.92C1106.91 2487.93 1101.65 2471.39 1090.49 2462.55C1084.29 2457.64 1074.22 2449.15 1068.11 2443.68C1062.01 2438.2 1051.33 2431.71 1044.4 2429.26C1033.36 2425.36 1035.15 2424.73 1058.79 2424.22C1085.52 2423.64 1101.75 2431.06 1101.75 2443.84C1101.75 2446.81 1104.95 2452.93 1108.86 2457.42C1117.57 2467.43 1118.45 2487.24 1110.71 2499.28C1104.64 2508.72 1100.75 2510.05 1103.02 2501.92ZM986.317 2406.71C976.4 2399.9 974.133 2392.99 972.608 2364.93C971.41 2342.95 971.484 2342.56 973.768 2358.7C977.52 2385.22 992.829 2407.26 1007.83 2407.75C1014.48 2407.96 1024.73 2410.16 1030.6 2412.63C1038.2 2415.83 1034.45 2416.37 1017.55 2414.5C1004.51 2413.06 990.451 2409.56 986.317 2406.71ZM953.999 2406.56C945.725 2396.79 933.356 2364.19 933.356 2352.16C933.356 2334.45 956.582 2270.19 962.903 2270.42C964.262 2270.47 960.306 2281.08 954.109 2293.99C931.971 2340.13 940.929 2375.56 984.348 2413.59C987.04 2415.95 982.633 2416.66 974.159 2415.24C965.946 2413.86 956.874 2409.96 953.999 2406.56ZM951.761 2366.71C940.609 2339.33 949.266 2299.14 972.117 2272.23C975.827 2267.86 978.319 2263.08 977.657 2261.61C976.996 2260.14 974.297 2261.5 971.662 2264.63C965.481 2271.99 962.516 2271.94 965.846 2264.54C967.279 2261.36 972.563 2258.12 977.586 2257.36C982.61 2256.59 992.59 2254.16 999.764 2251.95C1014.91 2247.29 1013.7 2254.45 997.608 2264.63C965.256 2285.12 949.704 2334.83 963.278 2374.37L969.484 2392.45L962.68 2384.63C958.937 2380.33 954.023 2372.27 951.761 2366.71ZM962.924 2359.59C957.263 2335.26 966.318 2304.76 985.534 2283.43L993.835 2274.22L987.906 2287.59C974.195 2318.51 968.32 2342.36 969.394 2362.78C970.452 2382.93 968.085 2381.77 962.924 2359.59ZM957.073 2260.38C957.073 2224.43 1001.68 2204.61 1042.53 2222.4L1053.13 2227.02L1038.9 2227.71C1011.82 2229.02 976.714 2242 968.458 2253.75C959.907 2265.91 957.073 2267.56 957.073 2260.38ZM1014.64 2240.13C1019.56 2238.99 1027.03 2239.01 1031.24 2240.17C1035.45 2241.34 1031.43 2242.27 1022.3 2242.25C1013.16 2242.22 1009.72 2241.28 1014.64 2240.13ZM1081.94 2229.67C1089.03 2227.68 1110.62 2191.96 1105 2191.5C1103.53 2191.38 1100.94 2194.99 1099.25 2199.53C1094.77 2211.53 1083.93 2222.9 1076.99 2222.9C1068.06 2222.9 1076.14 2203.36 1087.99 2196.26C1092.83 2193.37 1099.77 2185.57 1103.42 2178.94C1112.28 2162.82 1127.84 2142.11 1129.06 2144.82C1129.6 2146.01 1124.78 2156.25 1118.35 2167.56C1106.85 2187.8 1104.26 2196.95 1112.81 2187.13C1119.02 2180.01 1142.08 2168.48 1143.57 2171.77C1144.25 2173.29 1138.59 2177.5 1130.99 2181.13C1111.1 2190.65 1103.53 2199.95 1105.35 2212.67C1107.23 2225.83 1099.87 2232.97 1085.15 2232.26C1077.21 2231.88 1076.39 2231.22 1081.94 2229.67ZM1147.45 2167.01C1148.24 2165.26 1150.29 2165.07 1152 2166.6C1153.89 2168.28 1153.33 2169.53 1150.57 2169.78C1148.07 2170.01 1146.67 2168.76 1147.45 2167.01ZM1127.47 2159.56C1130.52 2153.9 1140.66 2144.27 1150 2138.15C1159.33 2132.03 1169.11 2122.8 1171.71 2117.64C1174.32 2112.48 1180.31 2105.52 1185.02 2102.16C1205.53 2087.59 1236.57 2019.23 1239.93 1981.26C1246.74 1904.03 1242.57 1872.46 1220.74 1836.06C1206.07 1811.6 1206.22 1807.79 1221.31 1822.17C1247.75 1847.35 1265.39 1913.44 1257.24 1956.78C1255.21 1967.62 1253.53 1982.72 1253.52 1990.34C1253.46 2044.26 1181.86 2149.91 1134.95 2165.29C1129.08 2167.21 1123.75 2169.03 1123.09 2169.32C1122.44 2169.61 1124.41 2165.22 1127.47 2159.56ZM1202.61 2114.69C1235.33 2073.62 1258.28 2018.27 1258.28 1980.44C1258.28 1972.1 1259.35 1963.82 1260.65 1962.03C1261.96 1960.23 1263.02 1950.01 1263.01 1939.32C1262.98 1892.46 1254 1859.34 1232.67 1827.4C1226.51 1818.18 1223.91 1812.14 1226.86 1813.9C1229.79 1815.66 1234.57 1818.61 1237.48 1820.47C1256.19 1832.41 1278.77 1911.56 1271.21 1938.73C1268.24 1949.4 1269.72 1979.91 1273.99 1995.96C1277.97 2010.94 1277.97 2010.96 1266.49 2040.5C1252.86 2075.59 1251.45 2077.1 1258.55 2049.04C1261.48 2037.48 1263.18 2026.48 1262.33 2024.59C1261.48 2022.71 1259.76 2027.16 1258.51 2034.49C1252.67 2068.63 1231.47 2103.73 1201.36 2129.13C1182.55 2145.01 1183.04 2139.24 1202.61 2114.69ZM1140.72 2133.89C1141.44 2131.31 1144.7 2127.71 1147.98 2125.88C1163.15 2117.42 1222.71 2017.35 1222.71 2000.32C1222.71 1997.21 1225.54 1981.39 1228.99 1965.17C1238.62 1920.03 1208.61 1778.15 1195.57 1807.12C1194.95 1808.51 1201.4 1825.49 1209.91 1844.86C1231.14 1893.21 1234.03 1918.17 1224.41 1969.93C1217.69 2006.09 1216.24 2010.99 1206.42 2030.54L1198.47 2046.35L1203.46 2027.9C1206.21 2017.76 1208.46 2006.21 1208.47 2002.25C1208.47 1998.28 1211.76 1986.73 1215.77 1976.57C1238.18 1919.87 1207.74 1829 1140.06 1750.56C1127.87 1736.43 1114.53 1720.69 1110.42 1715.59C1105.64 1709.66 1098.22 1706.45 1089.89 1706.7C1082.72 1706.92 1073.64 1704.88 1069.73 1702.17L1062.62 1697.25L1069.12 1693.37C1096.56 1677 1126.59 1699.58 1166.97 1766.92C1189.63 1804.7 1196.49 1813.63 1192.88 1800.62C1190.47 1791.97 1195.46 1799.45 1214.01 1832.25C1237.49 1873.79 1246.55 1922.52 1237.84 1960.44C1236.04 1968.28 1234.57 1980.4 1234.57 1987.39C1234.57 2011.41 1203.19 2079.7 1186.33 2092.38C1182.2 2095.49 1175.69 2103 1171.85 2109.08C1166.18 2118.08 1158.37 2125.22 1140.15 2138.06C1139.75 2138.34 1140 2136.47 1140.72 2133.89ZM1147.68 1700.49C1145.25 1695.78 1140.05 1688.17 1136.14 1683.58C1123.18 1668.37 1132.45 1674.5 1146.88 1690.69C1160.29 1705.73 1164.66 1718.59 1158.08 1723.62C1156.45 1724.86 1154.44 1722.1 1153.61 1717.47C1152.79 1712.84 1150.12 1705.2 1147.68 1700.49ZM1109.79 1688.06C1102.43 1684.26 1093.61 1681.96 1090.18 1682.95C1053.22 1693.65 1034.25 1691.69 1016.7 1675.36C988.928 1649.51 966.091 1643.23 902.523 1643.97C836.096 1644.75 804.953 1641.63 792.608 1632.99C779.165 1623.57 781.988 1623.04 815.955 1628.63C832.913 1631.42 848.922 1633.6 851.531 1633.48C854.14 1633.37 863.879 1635.79 873.173 1638.86C886.944 1643.41 894.749 1642.74 915.362 1635.23C949.612 1622.74 969.354 1626.22 993.835 1649.06C1012.74 1666.68 1012.97 1666.75 1053.13 1667.3C1114.59 1668.12 1149.18 1686.24 1149.18 1717.62C1149.18 1726.64 1147.94 1726.03 1136.18 1711.28C1129.02 1702.31 1117.15 1691.86 1109.79 1688.06ZM874.627 1629.02C876.895 1627.7 881.164 1627.65 884.114 1628.91C887.065 1630.17 885.21 1631.25 879.992 1631.31C874.774 1631.37 872.36 1630.34 874.627 1629.02ZM827.814 1597.19C796.851 1555.78 789.046 1534.21 792.07 1498.39C795.298 1460.16 826.569 1389.64 854.61 1357.35C862.048 1348.79 870.802 1338.6 874.063 1334.7C896.547 1307.86 945.506 1290.06 993 1291.46C1030.01 1292.56 1027.52 1305.1 990.183 1305.66C972.089 1305.93 952.363 1316.32 937.767 1333.27C929.167 1343.27 923.233 1345.47 902.523 1346.36C810.939 1350.3 777.505 1535.12 853.903 1615.12L861.018 1622.57L851.531 1619.39C846.314 1617.65 835.641 1607.65 827.814 1597.19ZM776.822 1599.43C741.459 1555.24 730.988 1508 748.919 1473.53C758.128 1455.83 758.759 1453.08 755.955 1442.9C750.32 1422.41 773.886 1372.37 798.91 1351.68C801.277 1349.73 802.712 1346.33 802.102 1344.13C801.493 1341.94 803.293 1339.86 806.101 1339.5C808.911 1339.14 822.416 1333.81 836.11 1327.64C849.805 1321.47 865.774 1316.43 871.594 1316.43H882.181L872.784 1327.59C867.619 1333.72 859.194 1343.47 854.069 1349.25C821.937 1385.47 787.341 1470.54 787.831 1512.13C788.161 1539.93 796.671 1562.95 818.175 1594.19L835.897 1619.93L812.882 1617.83C792.504 1615.97 788.372 1613.86 776.822 1599.43ZM748.556 1610.89C739.97 1607.62 730.277 1601.6 727.016 1597.5C723.754 1593.41 716.817 1584.81 711.599 1578.4C698.019 1561.7 696.451 1527.87 708.5 1511.55C717.393 1499.5 721.603 1497.72 718.145 1507.47C705.388 1543.47 726.997 1604.75 753.105 1606.61C758.918 1607.02 770.622 1615.73 766.344 1616.46C765.146 1616.66 757.141 1614.16 748.556 1610.89ZM750.987 1595.2C723.7 1578.95 714.602 1559.13 718.518 1524.47C721.819 1495.23 734.131 1480.42 734.131 1505.68C734.131 1525.96 749.405 1568.68 765.568 1593.61C772.41 1604.16 775.897 1611.2 773.314 1609.25C770.734 1607.3 760.687 1600.97 750.987 1595.2ZM747.813 1450.45C748.591 1441.4 749.765 1438.66 751.357 1442.19C753.992 1448.05 752.094 1463.99 748.764 1463.99C747.6 1463.99 747.171 1457.9 747.813 1450.45ZM744.104 1410.31C742.878 1396.27 784.551 1342.75 796.688 1342.79C798.153 1342.79 795.902 1346.94 791.686 1352.01C770.466 1377.52 757.763 1396.43 753.864 1408.31C749.232 1422.44 745.235 1423.26 744.104 1410.31ZM722.775 1405.74C710.437 1395.56 708.592 1381.86 716.881 1361.98C720.681 1352.87 725.5 1339.26 727.59 1331.73C729.681 1324.2 734.942 1314.81 739.285 1310.84C743.625 1306.89 751.61 1296.16 757.03 1287.01C769.294 1266.31 791.332 1256.12 808.84 1263.06C815.4 1265.66 818.05 1268.14 814.77 1268.61C786.01 1272.74 773.748 1279.03 765.381 1293.94C760.585 1302.48 752.927 1313.41 748.361 1318.24C731.581 1335.98 724.395 1374.89 732.807 1402.43C737.197 1416.81 737.653 1420.45 734.624 1416.91C732.395 1414.3 727.063 1409.28 722.775 1405.74ZM733.194 1378.35C733.213 1354.88 739.927 1334.2 751.608 1321.65C756.997 1315.86 765.032 1305.2 769.465 1297.97C775.408 1288.26 780.503 1284.81 788.877 1284.81C795.122 1284.81 802.845 1282.6 806.039 1279.9C809.234 1277.2 822.378 1273.69 835.247 1272.1L858.647 1269.21L845.602 1276.53C838.428 1280.55 822.48 1287.5 810.164 1291.96C773.694 1305.17 743.335 1346.93 739.804 1388.76C737.907 1411.23 733.175 1403.78 733.194 1378.35ZM751.06 1360.29C771.486 1312.99 831.758 1276.47 871.297 1287.44C888.907 1292.32 885.369 1295.74 857.717 1300.58C830.328 1305.36 789.145 1334.59 761.159 1369.12C742.93 1391.61 739.012 1388.19 751.06 1360.29ZM935.728 1342.67C944.738 1329.47 970.431 1316.42 987.562 1316.35C997.535 1316.31 1009.96 1313.06 1015.18 1309.12C1020.4 1305.19 1030.54 1300.58 1037.71 1298.88L1050.76 1295.8L1040.08 1304.8C1034.21 1309.76 1025.68 1318.35 1021.11 1323.91C1016.54 1329.47 1008.54 1337.01 1003.32 1340.68C991.734 1348.82 930.294 1350.64 935.728 1342.67ZM822.307 1321.49C824.494 1318.65 831.431 1315.2 837.723 1313.8L849.16 1311.28L836.115 1318.4C819.627 1327.39 817.362 1327.9 822.307 1321.49ZM881.652 1303.07C883.149 1299.75 919.937 1290.12 921.115 1292.75C921.561 1293.73 917.292 1296.84 911.631 1299.65C900.406 1305.22 879.617 1307.6 881.652 1303.07ZM1037.39 1281.48C1127.53 1194.09 1036.02 960.234 937.843 1027.07C918.756 1040.07 899.616 1042.19 867.818 1034.83C852.786 1031.36 843.377 1032.44 825.189 1039.71C789.257 1054.09 741.246 1040.64 741.246 1016.19C741.246 1008.18 753.503 998.395 755.327 1004.96C758.737 1017.22 771.708 1019.79 823.071 1018.4C873.842 1017.02 878.332 1017.66 887.878 1027.68C899.998 1040.38 907.665 1039.01 940.144 1018.31C984.441 990.074 1036.32 1009.14 1070.48 1066.21C1084.54 1089.7 1085.2 1091.78 1083.78 1108.52C1082.4 1124.84 1082.9 1126.68 1090.59 1133.82C1095.16 1138.06 1100.04 1145.9 1101.43 1151.24C1102.83 1156.58 1104.01 1158.21 1104.05 1154.84C1104.13 1148.23 1090.84 1121.43 1087.49 1121.43C1086.36 1121.43 1086.02 1113.6 1086.72 1104.02C1087.91 1087.62 1087.06 1085.02 1072.02 1059.22C1063.24 1044.16 1057.2 1031.84 1058.59 1031.84C1069.6 1031.84 1094.06 1077.86 1092.69 1095.99C1092.27 1101.54 1095.19 1114.27 1099.21 1124.46C1118.77 1173.96 1074.97 1289.07 1036.53 1289.19L1029.41 1289.22L1037.39 1281.48ZM965.476 1282.76L953.717 1283.34L982.818 1251.14C1023.94 1205.62 1037.16 1178.06 1031.75 1149.11C1030.81 1144.04 1029.89 1133.67 1029.72 1126.07C1029.08 1097.59 1005.39 1052.44 981.976 1035.09L972.489 1028.06L979.998 1024.36C994.35 1017.28 1034.7 1053.23 1052.55 1088.98C1096.27 1176.56 1055.5 1302.67 989.092 1285.28C982.569 1283.57 971.942 1282.44 965.476 1282.76ZM896.001 1286.45C898.285 1285.12 902.018 1285.12 904.302 1286.45C906.586 1287.77 904.717 1288.86 900.152 1288.86C895.586 1288.86 893.717 1287.77 896.001 1286.45ZM880.54 1281.35C882.146 1279.91 885.347 1279.82 887.655 1281.16C889.963 1282.49 888.649 1283.68 884.736 1283.78C880.822 1283.89 878.934 1282.8 880.54 1281.35ZM866.31 1276.08C867.915 1274.64 871.117 1274.55 873.425 1275.89C875.732 1277.22 874.419 1278.4 870.505 1278.51C866.592 1278.62 864.704 1277.52 866.31 1276.08ZM974.551 1241.21C1031.09 1173.71 1027.83 1095.19 966.719 1052.74C954.618 1044.33 954.156 1043.4 959.134 1037.48C964.691 1030.87 979.925 1038.89 996.207 1056.99C1008.79 1070.98 1025.13 1111.59 1026.38 1131.97C1026.99 1142.12 1028.33 1154.69 1029.35 1159.91C1033.75 1182.54 981.621 1258.14 958.259 1263C956.955 1263.27 964.286 1253.47 974.551 1241.21ZM696.012 1164.41C689.557 1159.01 700.734 1155.85 744.804 1150.61C771.108 1147.48 780.832 1141.97 809.224 1114.09C819.871 1103.64 830.544 1095.29 832.942 1095.54C835.8 1095.83 835.102 1097.46 830.916 1100.27C827.404 1102.62 816.254 1114.7 806.141 1127.1C771.047 1170.15 722.538 1186.58 696.012 1164.41ZM80.7197 1155.19C25.4916 1132.66 4.86951 1088.93 25.6624 1038.44C29.552 1029 30.4319 1020.61 30.0002 996.988C29.3314 960.202 35.9912 935.048 51.3268 916.418L61.7458 903.764L55.4845 919.053C43.0187 949.488 38.1211 978.411 38.3298 1020.34L38.5219 1058.9L50.1339 1085.36C78.0515 1148.99 124.72 1171.06 176.775 1145.24C180.036 1143.63 178.435 1146.03 173.217 1150.59C153.814 1167.55 115.66 1169.44 80.7197 1155.19ZM671.135 1142C670.41 1139.38 667.744 1137.24 665.211 1137.24C652.828 1137.24 666.456 1090.62 685.349 1068.35C692.913 1059.43 697.805 1048.49 702.131 1030.83C709.714 999.866 717.019 988.098 737.904 973.183C746.917 966.748 756.959 957.467 760.22 952.555C763.481 947.649 768.457 942.042 771.274 940.097C778.228 935.301 788.681 903.806 788.681 887.643C788.681 856.022 759.425 838.852 702.112 836.849L680.767 836.1L690.254 828.174C710.518 811.246 749.528 819.357 772.553 845.281C778.726 852.238 785.521 857.924 787.651 857.924C808.786 857.924 819.179 908.955 802.605 931.348C798.869 936.397 796.576 942.226 797.51 944.302C798.445 946.379 797.567 946.674 795.559 944.961C793.552 943.248 786.112 947.844 779.03 955.175C771.946 962.5 764.593 968.519 762.693 968.545C755.695 968.651 710.093 1022.92 706.147 1035.85C703.927 1043.11 698.002 1057.63 692.979 1068.11C676.865 1101.75 673.645 1125.5 682.396 1146.2L687.581 1158.46L680.02 1152.61C675.86 1149.38 671.863 1144.61 671.135 1142ZM685.069 1141.6C675.35 1121.3 678.31 1109.25 710.625 1037.56C719.972 1016.83 783.937 949.878 783.937 960.83C783.937 963.217 767.254 980.171 747.41 997.958C708.587 1032.75 683.065 1110.96 701.28 1139.31C704.755 1144.72 705.174 1147.39 702.871 1149.44C696.311 1155.27 690.365 1152.65 685.069 1141.6ZM707.027 1137.39C697.224 1129.11 695.818 1088.74 704.778 1072.83C706.865 1069.13 712.764 1057.2 717.887 1046.33C723.007 1035.46 728.225 1026.57 729.48 1026.57C732.53 1026.57 732.388 1035.62 729.271 1039.9C724.075 1047.04 732.35 1058.19 742.84 1058.19C748.615 1058.19 756.721 1062.07 760.855 1066.82C771.825 1079.43 809.718 1073.89 834.929 1055.99C855.91 1041.09 872.239 1039.26 894.075 1049.35L908.161 1055.86L875.102 1070.12C856.92 1077.97 837.775 1085.92 832.557 1087.79C827.34 1089.65 816.169 1098.28 807.733 1106.95C781.781 1133.61 774.135 1138.17 748.361 1142.34C722.528 1146.53 717.071 1145.87 707.027 1137.39ZM100.479 1139.27C33.9658 1101.53 17.9496 946.974 75.4924 898.141C82.2471 892.407 87.9415 882.625 91.6272 870.415C94.7579 860.038 101.057 847.368 105.623 842.261C127.011 818.319 131.771 815.758 153.731 816.39L175.589 817.017L161.358 823.731C153.532 827.42 141.792 835.331 135.269 841.307C128.747 847.278 120.624 853.429 117.221 854.962C113.815 856.501 103.989 868.465 95.3865 881.556C86.7819 894.647 78.1771 905.356 76.2632 905.356C38.8491 905.356 41.5696 1063.13 79.5338 1095.12C84.0994 1098.97 88.9021 1103.88 90.2065 1106.03C103.846 1128.55 179.882 1120.78 222.245 1092.55C260.703 1066.91 265.923 1062.36 285.917 1037.03C307.35 1009.87 328.61 988.018 330.185 991.523C330.707 992.683 327.031 997.278 322.015 1001.74C316.998 1006.2 303.347 1022.08 291.675 1037.03C220.32 1128.44 148.807 1166.68 100.479 1139.27ZM283.794 1076.08C319.057 1037.38 342.217 1016 334.635 1029.14C332.102 1033.52 329.17 1037.11 328.117 1037.11C327.066 1037.11 321.011 1045.4 314.662 1055.53C301.758 1076.14 285.267 1093.52 269.272 1103.37C249.539 1115.54 251.923 1111.05 283.794 1076.08ZM241.596 1107.39C244.12 1101.78 292.197 1044.19 315.867 1018.42C337.585 994.77 362.064 978.132 384.301 971.897C395.654 968.719 395.351 969.22 377.186 983.676C366.75 991.982 349.002 1006.18 337.746 1015.23C326.488 1024.28 300.901 1049.51 280.886 1071.29C247.701 1107.4 237.285 1116.97 241.596 1107.39ZM80.7197 1086.92C52.6835 1056.15 44.7881 1014.23 56.4451 958.057C61.8739 931.886 62.9199 931.311 70.4478 950.363C74.6149 960.909 81.3884 970.722 86.694 973.894C91.9308 977.03 100.282 989.036 106.37 1002.18C117.977 1027.24 130.377 1037.11 150.278 1037.11C156.724 1037.11 167.416 1041 174.035 1045.75C188.363 1056.03 233.205 1039.86 278.759 1007.97C292.456 998.39 308.465 989.02 314.335 987.159L325.008 983.771L312.957 996.609C306.328 1003.67 292.453 1020.22 282.124 1033.39C271.793 1046.56 256.939 1061.26 249.112 1066.06C241.286 1070.86 228.308 1079.47 220.272 1085.2C192.995 1104.66 172.47 1110.42 135.269 1109.06L99.6935 1107.75L80.7197 1086.92ZM8.55505 1091.74C2.41467 1074.39 2.38147 1066.04 8.38196 1049.09C10.9908 1041.72 13.1254 1032.86 13.1254 1029.41C13.1254 1020.88 23.7507 999.233 25.7524 1003.69C29.0183 1010.94 27.1874 1025.08 21.4265 1037.11C15.037 1050.45 13.4669 1076.81 17.9518 1095.43C21.7869 1111.35 14.4821 1108.48 8.55505 1091.74ZM872.877 1079.27C883.528 1073.25 893.416 1073.25 887.107 1079.27C884.498 1081.76 878.628 1083.69 874.063 1083.55L865.762 1083.29L872.877 1079.27ZM960.005 1063.78C957.74 1061.06 952.825 1057.38 949.085 1055.62C945.345 1053.85 942.829 1051.2 943.495 1049.72C944.821 1046.77 970.936 1060.89 973.116 1065.73C975.362 1070.72 964.426 1069.09 960.005 1063.78ZM760.388 1058.39C757.858 1055.38 751.715 1052.88 746.739 1052.84C734.752 1052.73 731.932 1048 733.438 1030.51C734.773 1014.99 737.601 1011.59 739.588 1023.1C741.564 1034.54 755.749 1046.83 774.381 1053.25C791.209 1059.06 795.585 1058.42 832.557 1044.78C839.53 1042.21 839.554 1042.27 833.743 1048.07C815.683 1066.09 772.024 1072.23 760.388 1058.39ZM933.022 1047.53C946.163 1034.29 948.341 1034.33 939.285 1047.65C935.372 1053.41 930.036 1058.09 927.427 1058.04C924.524 1057.99 926.694 1053.92 933.022 1047.53ZM918.533 1044.16C920.162 1042.7 922.83 1042.7 924.462 1044.16C926.091 1045.62 924.758 1046.82 921.497 1046.82C918.236 1046.82 916.901 1045.62 918.533 1044.16ZM178.812 1039.36C174.804 1034.75 161.415 1029.29 148.691 1027.07C123.94 1022.75 115.47 1015.6 104.845 990.069L98.1399 973.947L109.999 987.618C117.403 996.156 128.382 1002.95 139.235 1005.71C148.795 1008.13 161.285 1013.82 166.994 1018.34C178.871 1027.76 190.424 1028.61 204.05 1021.07C209.267 1018.18 223.04 1013.47 234.654 1010.61C257.753 1004.92 294.799 979.349 306.034 961.341C321.187 937.056 324.695 935.253 349.814 938.811C376.937 942.658 384.958 938.458 403.391 910.747C413.134 896.101 414.225 895.321 409.797 906.152C406.861 913.335 404.456 921.43 404.451 924.139C404.442 929.899 374.397 948.271 360.584 950.969C332.135 956.529 311.05 965.357 307.516 973.193C300.361 989.052 236.865 1028.49 193.377 1044.09C190.116 1045.26 187.127 1046.54 186.736 1046.93C186.347 1047.33 182.78 1043.92 178.812 1039.36ZM949.958 1031.84C951.915 1029.03 954.583 1026.73 955.887 1026.73C957.192 1026.73 956.658 1029.03 954.702 1031.84C952.745 1034.65 950.077 1036.95 948.772 1036.95C947.468 1036.95 948.001 1034.65 949.958 1031.84ZM889.915 1020.11C887.067 1016.56 878.332 1012.06 870.505 1010.12C862.678 1008.18 871.757 1007.82 890.679 1009.32C918.573 1011.53 927.23 1010.43 936.418 1003.5C942.651 998.796 951.718 995.228 956.563 995.571L965.374 996.187L954.702 1000.59C948.831 1003.02 937.625 1009.73 929.798 1015.5C913.429 1027.58 897.396 1029.44 889.915 1020.11ZM165.426 1007.54C159.836 1003.51 150.764 1000.19 145.266 1000.16C121.29 1000.02 77.1621 946.732 77.1621 917.92C77.1621 906.352 82.942 909.414 89.2009 924.302C105.113 962.152 143.312 993.668 183.89 1002.42C212.336 1008.56 213.105 1009.04 202.864 1014.21C190.932 1020.25 180.477 1018.38 165.426 1007.54ZM1009.65 1003.19C990.161 997.12 989.571 996.561 998.322 992.503C1008.14 987.955 1031.24 1000.29 1034.44 1011.79C1035.47 1015.49 1034.99 1016.17 1033.14 1013.63C1031.52 1011.41 1020.95 1006.72 1009.65 1003.19ZM705.67 987.428C705.67 976.545 716.635 959.027 727.929 951.86C742.951 942.331 749.77 920.813 740.323 912.755C738.509 911.211 737.503 905.893 738.087 900.945C739.36 890.114 730.927 871.922 721.086 864.28L713.971 858.757L720.588 858.341C728.968 857.814 744.868 875.595 747.114 888.001C753.705 924.439 746.575 949.198 720.56 980.219C706.915 996.488 705.67 997.094 705.67 987.428ZM312.684 973.288C317.506 967.054 351.955 959.939 349.538 965.673C348.682 967.707 340.678 971.259 331.75 973.562C308.021 979.692 307.734 979.686 312.684 973.288ZM488.657 968.598C491.266 966.105 495.428 963.902 497.907 963.697C500.383 963.496 513.724 951.823 527.553 937.762C545.45 919.564 556.823 911.385 567.024 909.377C577.239 907.364 586.778 900.497 600.228 885.466C621.72 861.455 635.593 850.604 639.876 854.451C641.493 855.901 640.63 857.281 637.957 857.508C635.282 857.734 632.08 860.132 630.842 862.836C629.602 865.54 619.517 875.964 608.429 886.009C597.341 896.049 583.348 909.219 577.333 915.274C571.316 921.33 558.189 928.998 548.159 932.313C535.795 936.397 527.096 942.658 521.147 951.749C512.5 964.967 501.452 972.429 489.843 972.893C484.461 973.104 484.352 972.709 488.657 968.598ZM354.654 971.67C354.654 966.348 389.96 945.462 398.531 945.72C448.264 947.206 450.745 950.59 407.814 958.368C390.968 961.425 373.45 965.915 368.885 968.355C358.983 973.641 354.654 974.653 354.654 971.67ZM73.863 947.364C69.1315 937.214 67.5044 929.751 68.6167 923.317C69.9994 915.311 71.2493 916.739 77.3992 933.314C81.3434 943.944 86.9052 956.366 89.7607 960.914C94.8528 969.03 94.8173 969.12 87.8348 965.631C83.9215 963.681 77.634 955.459 73.863 947.364ZM746.402 948.213C749.436 939.896 752.367 933.978 752.917 935.058C753.921 937.029 743.615 963.328 741.839 963.328C741.315 963.328 743.369 956.524 746.402 948.213ZM457.824 952.787L450.709 948.766L457.824 948.06C480.491 945.82 546.072 909.419 558.711 892.059C571.859 874.003 632.837 837.671 639.719 843.795C641.425 845.313 640.014 846.741 636.586 846.968C629.727 847.426 619.666 855.827 597.073 879.959C588.872 888.718 575.531 897.851 567.427 900.254C550.922 905.145 535.781 916.897 514.746 941.146C499.899 958.263 476.11 963.127 457.824 952.787ZM755.393 942.595C762.077 914.842 754.373 881.182 736.503 860.064L725.83 847.452L742.432 850.24C770.145 854.889 786.314 869.187 786.306 889.045C786.302 902.789 765.058 943.886 753.615 952.292C753.242 952.566 754.041 948.202 755.393 942.595ZM422.09 936.845C415.347 931.148 419.319 910.626 427.165 910.626C428.813 910.626 435.755 900.017 442.591 887.052C467.672 839.479 516.397 814.424 575.948 818.472C643.045 823.025 684.185 833.202 643.234 835.11C620.143 836.19 596.023 849.734 558.623 882.636C503.312 931.29 443.585 955.001 422.09 936.845ZM408.45 934.948C406.496 923.622 413.229 906.399 424.165 894.758C429.632 888.934 436.775 880.154 440.036 875.242L445.966 866.309L440.036 881.092C436.775 889.224 429.478 900.739 423.819 906.684C415.219 915.717 413.706 919.522 414.597 929.867C415.755 943.322 410.629 947.559 408.45 934.948ZM65.3035 857.107C65.3035 799.589 76.1304 779.757 115.11 765.881L123.411 762.924L113.924 772.289C78.4286 807.341 65.7589 835.247 70.0944 868.839C72.0961 884.349 70.5142 894.104 65.8964 894.736C65.5691 894.778 65.3035 877.845 65.3035 857.107ZM424.62 881.044C436.386 860.796 483.252 815.484 491.904 815.99C494.031 816.116 489.157 821.149 481.075 827.173C472.992 833.202 456.449 849.46 444.313 863.3C420.112 890.9 417.557 893.203 424.62 881.044ZM72.5016 853.45C72.2881 821.971 105.07 781.111 144.756 763.398C170.274 752.01 175.636 747.73 187.134 729.564C205.831 700.03 215.989 656.256 209.958 631.217C207.543 621.193 207.721 620.519 211.577 625.025C213.959 627.807 220.711 631.755 226.581 633.8C305.911 661.442 254.174 813.418 167.288 807.974C127.618 805.491 106.56 818.54 93.1902 853.903C77.8143 894.568 79.2516 892.549 75.7295 878.425C74.0006 871.495 72.549 860.259 72.5016 853.45ZM56.8838 845.202C54.505 817.017 63.9895 784.785 77.1621 776.3C80.4232 774.197 84.7445 767.846 86.7676 762.181C91.3354 749.385 104.828 742.144 123.411 742.523C136.119 742.781 136.915 743.398 130.851 748.305C127.115 751.324 125.135 755.288 126.447 757.111C127.76 758.935 121.957 760.8 113.552 761.259C84.282 762.855 61.5299 799.768 61.9711 844.944C62.2273 871.347 59.1038 871.505 56.8838 845.202ZM666.537 847.384C661.629 844.606 665.676 843.363 679.581 843.363C690.669 843.363 702.943 845.17 706.856 847.384C711.763 850.161 707.717 851.405 693.811 851.405C682.724 851.405 670.45 849.597 666.537 847.384ZM645.739 849.197C647.344 847.753 650.546 847.663 652.854 849.002C655.162 850.34 653.848 851.521 649.934 851.626C646.021 851.732 644.133 850.641 645.739 849.197ZM658.235 821.033C653.141 817.407 653.641 816.791 661.793 816.659C667.011 816.574 673.415 818.54 676.023 821.033C682.387 827.109 666.771 827.109 658.235 821.033ZM639.904 817.85C640.692 816.1 642.739 815.91 644.449 817.433C646.341 819.115 645.779 820.364 643.016 820.617C640.516 820.843 639.117 819.599 639.904 817.85ZM211.758 812.274C213.387 810.809 216.055 810.809 217.687 812.274C219.316 813.734 217.983 814.93 214.722 814.93C211.461 814.93 210.126 813.734 211.758 812.274ZM547.95 805.865C529.778 798.161 573.849 792.89 596.073 800.11C606.781 803.589 615.544 807.346 615.544 808.464C615.544 812.179 557.586 809.95 547.95 805.865ZM233.627 794.408C274.288 744.61 274.649 643.507 234.22 628.44C221.278 623.612 210.249 615.465 208.589 609.494C205.835 599.591 209.135 599.865 218.351 610.305C223.429 616.06 229.472 620.766 231.777 620.766C250.187 620.766 264.493 653.726 266.967 701.853L268.622 734.075L268.947 702.143C269.161 681.252 268.067 666.675 265.79 659.982C260.131 643.36 261.645 640.319 269.436 652.646C273.442 658.986 277.739 670.411 278.987 678.043C280.234 685.669 283.011 699.371 285.156 708.488L289.055 725.058L274.132 755.92C258.687 787.857 253.275 795.984 243.183 802.419L237.254 806.198L243.183 797.017C254.11 780.099 266.9 750.46 266.829 742.228C266.775 736.062 266.103 736.578 264.071 744.357C258.948 763.989 230.855 810.508 224.209 810.377C222.253 810.335 226.491 803.151 233.627 794.408ZM140.013 750.502C148.629 742.175 172.662 735.192 166.55 742.792C162.241 748.152 145.48 756.394 137.641 757.006C134.261 757.269 134.944 755.398 140.013 750.502ZM189.822 706.027C210.439 636.798 182.946 533.814 144.59 536.602C140.886 536.871 149.227 546.014 161.543 555.184C185.664 573.145 193.111 596.197 192.95 652.387C192.865 681.679 188.176 706.538 179.889 721.627C176.329 728.109 176.338 727.461 180.005 714.939C197.461 655.323 177.768 583.607 137.553 560.328C119.898 550.109 117.681 545.118 125.65 533.513C130.398 526.604 132.627 525.83 134.679 530.388C138.763 539.464 142.242 537.687 138.744 528.317C132.983 512.891 140.122 506.862 146.376 521.866C149.419 529.166 160.154 541.545 170.435 549.603C191.107 565.814 202.864 584.481 202.864 601.098C202.864 607.154 204.121 619.834 205.658 629.278C209.512 652.967 205.041 684.088 194.382 707.777C183.684 731.546 182.372 731.045 189.822 706.027ZM178.245 665.336C184.257 644.946 164.053 589.145 150.657 589.145C148.383 589.145 142.66 585.562 137.94 581.177C130.094 573.894 121.675 570.22 109.245 568.655C104.731 568.086 104.745 567.791 109.61 560.217C114.076 553.266 115.62 553.266 123.107 560.217C127.756 564.534 134.24 568.065 137.518 568.065C156.155 568.065 186.15 627.275 182.742 657.341C181.9 664.762 181.053 674.854 180.856 679.766C180.598 686.28 179.701 687.218 177.541 683.234C175.195 678.907 175.342 675.186 178.245 665.336ZM210.572 590.394C196.323 566.283 206.687 574.141 223.023 599.839C229.643 610.247 229.726 610.764 224.209 607.233C220.948 605.146 214.813 597.572 210.572 590.394ZM93.7642 565.403C93.7642 560.755 116.927 513.255 125.875 499.552C130.607 492.306 143.727 470.461 155.033 451.004C166.339 431.546 179.324 409.575 183.89 402.181C205.62 366.971 228.445 325.921 234.882 310.474C238.795 301.083 247.334 284.651 253.856 273.958C267.474 251.628 270.913 245.609 284.544 220.233C289.994 210.088 301.06 191.174 309.138 178.198C317.214 165.229 323.822 153.06 323.822 151.168C323.822 144.875 366.055 72.6685 369.734 72.6685C380.508 72.6685 358.689 129.375 333.309 167.331C324.104 181.097 289.292 237.288 272.018 266.258C268.964 271.38 263.627 281.657 260.16 289.094C256.692 296.535 249.053 310.627 243.183 320.409C237.313 330.195 226.583 350.196 219.34 364.857C204.808 394.27 201.111 400.636 141.199 499.373C104.468 559.906 93.7642 574.805 93.7642 565.403ZM388.259 41.896C428.612 -39.5071 439.327 -60.2664 443.594 -65.3101C450.259 -73.189 448.385 -69.1519 411.576 3.69775C393.966 38.5493 378.67 67.1399 377.587 67.2295C376.505 67.3245 381.308 55.9199 388.259 41.896Z" fill="#E5E5E5"/>
</svg>
